{
    "asset" : {
        "generator" : "Khronos glTF Blender I/O v3.4.50",
        "version" : "2.0"
    },
    "extensionsUsed" : [
        "KHR_materials_specular"
    ],
    "scene" : 0,
    "scenes" : [
        {
            "name" : "Scene",
            "nodes" : [
                0
            ]
        }
    ],
    "nodes" : [
        {
            "mesh" : 0,
            "name" : "98.002",
            "rotation" : [
                0,
                -0.7077762484550476,
                0,
                0.7064366936683655
            ],
            "scale" : [
                0.1038035973906517,
                0.1038036048412323,
                0.1038035973906517
            ],
            "translation" : [
                -581.2084350585938,
                100,
                972.5079956054688
            ]
        }
    ],
    "materials" : [
        {
            "doubleSided" : true,
            "extensions" : {
                "KHR_materials_specular" : {
                    "specularColorFactor" : [
                        0.4770642220973968,
                        0.4770642220973968,
                        0.4770642220973968
                    ]
                }
            },
            "name" : "default_material",
            "pbrMetallicRoughness" : {
                "baseColorTexture" : {
                    "index" : 0
                },
                "metallicFactor" : 0.2293577939271927
            }
        }
    ],
    "meshes" : [
        {
            "name" : "98.002",
            "primitives" : [
                {
                    "attributes" : {
                        "POSITION" : 0,
                        "TEXCOORD_0" : 1,
                        "NORMAL" : 2
                    },
                    "indices" : 3,
                    "material" : 0
                }
            ]
        }
    ],
    "textures" : [
        {
            "sampler" : 0,
            "source" : 0
        }
    ],
    "images" : [
        {
            "bufferView" : 4,
            "mimeType" : "image/png",
            "name" : "background4"
        }
    ],
    "accessors" : [
        {
            "bufferView" : 0,
            "componentType" : 5126,
            "count" : 4214,
            "max" : [
                10004.1474609375,
                82.091064453125,
                683.6533203125
            ],
            "min" : [
                -7384.10107421875,
                -0.000244140625,
                -2375.721923828125
            ],
            "type" : "VEC3"
        },
        {
            "bufferView" : 1,
            "componentType" : 5126,
            "count" : 4214,
            "type" : "VEC2"
        },
        {
            "bufferView" : 2,
            "componentType" : 5126,
            "count" : 4214,
            "type" : "VEC3"
        },
        {
            "bufferView" : 3,
            "componentType" : 5123,
            "count" : 5664,
            "type" : "SCALAR"
        }
    ],
    "bufferViews" : [
        {
            "buffer" : 0,
            "byteLength" : 50568,
            "byteOffset" : 0,
            "target" : 34962
        },
        {
            "buffer" : 0,
            "byteLength" : 33712,
            "byteOffset" : 50568,
            "target" : 34962
        },
        {
            "buffer" : 0,
            "byteLength" : 50568,
            "byteOffset" : 84280,
            "target" : 34962
        },
        {
            "buffer" : 0,
            "byteLength" : 11328,
            "byteOffset" : 134848,
            "target" : 34963
        },
        {
            "buffer" : 0,
            "byteLength" : 1691,
            "byteOffset" : 146176
        }
    ],
    "samplers" : [
        {
            "magFilter" : 9729,
            "minFilter" : 9987
        }
    ],
    "buffers" : [
        {
            "byteLength" : 147868,
            "uri" : "data:application/octet-stream;base64,"
        }
    ]
}
