{"asset":{"generator":"FME 2022.1.2.0","version":"2.0"},"materials":[{"pbrMetallicRoughness":{"baseColorFactor":[1,1,1,1],"roughnessFactor":0.30000000000000004,"metallicFactor":0.5}}],"meshes":[{"primitives":[{"attributes":{"POSITION":0,"COLOR_0":1},"indices":2,"material":0,"mode":4}]}],"nodes":[{"mesh":0}],"scenes":[{"nodes":[0]}],"scene":0,"accessors":[{"bufferView":0,"byteOffset":0,"componentType":5126,"count":216,"type":"VEC3","min":[2603.523193359375,1490,3682.02197265625],"max":[3451.351318359375,1510,6787.439453125]},{"bufferView":1,"byteOffset":0,"componentType":5126,"count":216,"type":"VEC3"},{"bufferView":2,"byteOffset":0,"componentType":5121,"count":1284,"type":"SCALAR","min":[0],"max":[215]}],"bufferViews":[{"buffer":0,"byteOffset":0,"byteLength":2592,"target":34962},{"buffer":0,"byteOffset":2592,"byteLength":2592,"target":34962},{"buffer":0,"byteOffset":5184,"byteLength":1284,"target":34963}],"buffers":[{"uri":"data:application/octet-stream;base64,","byteLength":6468}]}