{"asset":{"generator":"FME 2022.1.2.0","version":"2.0"},"materials":[{"pbrMetallicRoughness":{"baseColorFactor":[1,1,1,1],"roughnessFactor":0.30000000000000004,"metallicFactor":0.5}}],"meshes":[{"primitives":[{"attributes":{"POSITION":0,"COLOR_0":1},"indices":2,"material":0,"mode":4}]}],"nodes":[{"mesh":0}],"scenes":[{"nodes":[0]}],"scene":0,"accessors":[{"bufferView":0,"byteOffset":0,"componentType":5126,"count":273,"type":"VEC3","min":[2117.4248046875,1490,7244.60986328125],"max":[4519.2705078125,2010,7583.2802734375]},{"bufferView":1,"byteOffset":0,"componentType":5126,"count":273,"type":"VEC3"},{"bufferView":2,"byteOffset":0,"componentType":5123,"count":1626,"type":"SCALAR","min":[0],"max":[272]}],"bufferViews":[{"buffer":0,"byteOffset":0,"byteLength":3276,"target":34962},{"buffer":0,"byteOffset":3276,"byteLength":3276,"target":34962},{"buffer":0,"byteOffset":6552,"byteLength":3252,"target":34963}],"buffers":[{"uri":"data:application/octet-stream;base64,","byteLength":9804}]}