{"asset":{"generator":"FME 2022.1.2.0","version":"2.0"},"materials":[{"pbrMetallicRoughness":{"baseColorFactor":[1,1,1,1],"roughnessFactor":0.30000000000000004,"metallicFactor":0.5}}],"meshes":[{"primitives":[{"attributes":{"POSITION":0,"COLOR_0":1},"indices":2,"material":0,"mode":4}]}],"nodes":[{"mesh":0}],"scenes":[{"nodes":[0]}],"scene":0,"accessors":[{"bufferView":0,"byteOffset":0,"componentType":5126,"count":170,"type":"VEC3","min":[3079.72412109375,1990,1221.462158203125],"max":[4525.439453125,2010,6200.53076171875]},{"bufferView":1,"byteOffset":0,"componentType":5126,"count":170,"type":"VEC3"},{"bufferView":2,"byteOffset":0,"componentType":5121,"count":1008,"type":"SCALAR","min":[0],"max":[169]}],"bufferViews":[{"buffer":0,"byteOffset":0,"byteLength":2040,"target":34962},{"buffer":0,"byteOffset":2040,"byteLength":2040,"target":34962},{"buffer":0,"byteOffset":4080,"byteLength":1008,"target":34963}],"buffers":[{"uri":"data:application/octet-stream;base64,","byteLength":5088}]}