{"asset":{"generator":"FME 2022.1.2.0","version":"2.0"},"materials":[{"pbrMetallicRoughness":{"baseColorFactor":[1,1,1,1],"roughnessFactor":0.30000000000000004,"metallicFactor":0.5}}],"meshes":[{"primitives":[{"attributes":{"POSITION":0,"COLOR_0":1},"indices":2,"material":0,"mode":4}]}],"nodes":[{"mesh":0}],"scenes":[{"nodes":[0]}],"scene":0,"accessors":[{"bufferView":0,"byteOffset":0,"componentType":5126,"count":184,"type":"VEC3","min":[2616.901611328125,1990,4332.02197265625],"max":[3635.25048828125,2010,8274.44140625]},{"bufferView":1,"byteOffset":0,"componentType":5126,"count":184,"type":"VEC3"},{"bufferView":2,"byteOffset":0,"componentType":5121,"count":1092,"type":"SCALAR","min":[0],"max":[183]}],"bufferViews":[{"buffer":0,"byteOffset":0,"byteLength":2208,"target":34962},{"buffer":0,"byteOffset":2208,"byteLength":2208,"target":34962},{"buffer":0,"byteOffset":4416,"byteLength":1092,"target":34963}],"buffers":[{"uri":"data:application/octet-stream;base64,","byteLength":5508}]}