{"asset":{"generator":"FME 2022.1.2.0","version":"2.0"},"materials":[{"pbrMetallicRoughness":{"baseColorFactor":[1,1,1,1],"roughnessFactor":0.30000000000000004,"metallicFactor":0.5}}],"meshes":[{"primitives":[{"attributes":{"POSITION":0,"COLOR_0":1},"indices":2,"material":0,"mode":4}]}],"nodes":[{"mesh":0}],"scenes":[{"nodes":[0]}],"scene":0,"accessors":[{"bufferView":0,"byteOffset":0,"componentType":5126,"count":178,"type":"VEC3","min":[3079.275390625,-510,509.1083068847656],"max":[4525.439453125,-490,6200.53076171875]},{"bufferView":1,"byteOffset":0,"componentType":5126,"count":178,"type":"VEC3"},{"bufferView":2,"byteOffset":0,"componentType":5121,"count":1056,"type":"SCALAR","min":[0],"max":[177]}],"bufferViews":[{"buffer":0,"byteOffset":0,"byteLength":2136,"target":34962},{"buffer":0,"byteOffset":2136,"byteLength":2136,"target":34962},{"buffer":0,"byteOffset":4272,"byteLength":1056,"target":34963}],"buffers":[{"uri":"data:application/octet-stream;base64,","byteLength":5328}]}