{"asset":{"generator":"FME 2022.1.2.0","version":"2.0"},"materials":[{"pbrMetallicRoughness":{"baseColorFactor":[1,1,1,1],"roughnessFactor":0.30000000000000004,"metallicFactor":0.5}}],"meshes":[{"primitives":[{"attributes":{"POSITION":0,"COLOR_0":1},"indices":2,"material":0,"mode":4}]}],"nodes":[{"mesh":0}],"scenes":[{"nodes":[0]}],"scene":0,"accessors":[{"bufferView":0,"byteOffset":0,"componentType":5126,"count":232,"type":"VEC3","min":[2670.23193359375,-510,509.1083068847656],"max":[4326.97412109375,2010,3579.1083984375]},{"bufferView":1,"byteOffset":0,"componentType":5126,"count":232,"type":"VEC3"},{"bufferView":2,"byteOffset":0,"componentType":5121,"count":1380,"type":"SCALAR","min":[0],"max":[231]}],"bufferViews":[{"buffer":0,"byteOffset":0,"byteLength":2784,"target":34962},{"buffer":0,"byteOffset":2784,"byteLength":2784,"target":34962},{"buffer":0,"byteOffset":5568,"byteLength":1380,"target":34963}],"buffers":[{"uri":"data:application/octet-stream;base64,","byteLength":6948}]}