{"asset":{"generator":"FME 2022.1.2.0","version":"2.0"},"materials":[{"pbrMetallicRoughness":{"baseColorFactor":[1,1,1,1],"roughnessFactor":0.30000000000000004,"metallicFactor":0.5}}],"meshes":[{"primitives":[{"attributes":{"POSITION":0,"COLOR_0":1},"indices":2,"material":0,"mode":4}]}],"nodes":[{"mesh":0}],"scenes":[{"nodes":[0]}],"scene":0,"accessors":[{"bufferView":0,"byteOffset":0,"componentType":5126,"count":142,"type":"VEC3","min":[3612.304443359375,1990,6030.53076171875],"max":[4525.439453125,2010,8274.44140625]},{"bufferView":1,"byteOffset":0,"componentType":5126,"count":142,"type":"VEC3"},{"bufferView":2,"byteOffset":0,"componentType":5121,"count":840,"type":"SCALAR","min":[0],"max":[141]}],"bufferViews":[{"buffer":0,"byteOffset":0,"byteLength":1704,"target":34962},{"buffer":0,"byteOffset":1704,"byteLength":1704,"target":34962},{"buffer":0,"byteOffset":3408,"byteLength":840,"target":34963}],"buffers":[{"uri":"data:application/octet-stream;base64,","byteLength":4248}]}