{"asset":{"generator":"FME 2022.1.2.0","version":"2.0"},"materials":[{"pbrMetallicRoughness":{"baseColorFactor":[1,1,1,1],"roughnessFactor":0.30000000000000004,"metallicFactor":0.5}}],"meshes":[{"primitives":[{"attributes":{"POSITION":0,"COLOR_0":1},"indices":2,"material":0,"mode":4}]}],"nodes":[{"mesh":0}],"scenes":[{"nodes":[0]}],"scene":0,"accessors":[{"bufferView":0,"byteOffset":0,"componentType":5126,"count":378,"type":"VEC3","min":[2659.541015625,-510,3139.221923828125],"max":[4529.29638671875,2010,5614.00390625]},{"bufferView":1,"byteOffset":0,"componentType":5126,"count":378,"type":"VEC3"},{"bufferView":2,"byteOffset":0,"componentType":5123,"count":2256,"type":"SCALAR","min":[0],"max":[377]}],"bufferViews":[{"buffer":0,"byteOffset":0,"byteLength":4536,"target":34962},{"buffer":0,"byteOffset":4536,"byteLength":4536,"target":34962},{"buffer":0,"byteOffset":9072,"byteLength":4512,"target":34963}],"buffers":[{"uri":"data:application/octet-stream;base64,","byteLength":13584}]}