{"asset":{"generator":"FME 2022.1.2.0","version":"2.0"},"materials":[{"pbrMetallicRoughness":{"baseColorFactor":[1,1,1,1],"roughnessFactor":0.30000000000000004,"metallicFactor":0.5}}],"meshes":[{"primitives":[{"attributes":{"POSITION":0,"COLOR_0":1},"indices":2,"material":0,"mode":4}]}],"nodes":[{"mesh":0}],"scenes":[{"nodes":[0]}],"scene":0,"accessors":[{"bufferView":0,"byteOffset":0,"componentType":5126,"count":286,"type":"VEC3","min":[2656.551025390625,-10,1990.8887939453125],"max":[4326.97412109375,2010,5881.43701171875]},{"bufferView":1,"byteOffset":0,"componentType":5126,"count":286,"type":"VEC3"},{"bufferView":2,"byteOffset":0,"componentType":5123,"count":1704,"type":"SCALAR","min":[0],"max":[285]}],"bufferViews":[{"buffer":0,"byteOffset":0,"byteLength":3432,"target":34962},{"buffer":0,"byteOffset":3432,"byteLength":3432,"target":34962},{"buffer":0,"byteOffset":6864,"byteLength":3408,"target":34963}],"buffers":[{"uri":"data:application/octet-stream;base64,","byteLength":10272}]}