{"asset":{"generator":"FME 2022.1.2.0","version":"2.0"},"materials":[{"pbrMetallicRoughness":{"baseColorFactor":[1,1,1,1],"roughnessFactor":0.30000000000000004,"metallicFactor":0.5}}],"meshes":[{"primitives":[{"attributes":{"POSITION":0,"COLOR_0":1},"indices":2,"material":0,"mode":4}]}],"nodes":[{"mesh":0}],"scenes":[{"nodes":[0]}],"scene":0,"accessors":[{"bufferView":0,"byteOffset":0,"componentType":5126,"count":349,"type":"VEC3","min":[2666.901611328125,-10,534.8037109375],"max":[4571.44873046875,510,3102.02197265625]},{"bufferView":1,"byteOffset":0,"componentType":5126,"count":349,"type":"VEC3"},{"bufferView":2,"byteOffset":0,"componentType":5123,"count":2082,"type":"SCALAR","min":[0],"max":[348]}],"bufferViews":[{"buffer":0,"byteOffset":0,"byteLength":4188,"target":34962},{"buffer":0,"byteOffset":4188,"byteLength":4188,"target":34962},{"buffer":0,"byteOffset":8376,"byteLength":4164,"target":34963}],"buffers":[{"uri":"data:application/octet-stream;base64,","byteLength":12540}]}