{"asset":{"generator":"FME 2022.1.2.0","version":"2.0"},"materials":[{"pbrMetallicRoughness":{"baseColorFactor":[1,1,1,1],"roughnessFactor":0.30000000000000004,"metallicFactor":0.5}}],"meshes":[{"primitives":[{"attributes":{"POSITION":0,"COLOR_0":1},"indices":2,"material":0,"mode":4}]}],"nodes":[{"mesh":0}],"scenes":[{"nodes":[0]}],"scene":0,"accessors":[{"bufferView":0,"byteOffset":0,"componentType":5126,"count":291,"type":"VEC3","min":[2117.423828125,-10,5617.439453125],"max":[4473.5361328125,510,7583.2802734375]},{"bufferView":1,"byteOffset":0,"componentType":5126,"count":291,"type":"VEC3"},{"bufferView":2,"byteOffset":0,"componentType":5123,"count":1734,"type":"SCALAR","min":[0],"max":[290]}],"bufferViews":[{"buffer":0,"byteOffset":0,"byteLength":3492,"target":34962},{"buffer":0,"byteOffset":3492,"byteLength":3492,"target":34962},{"buffer":0,"byteOffset":6984,"byteLength":3468,"target":34963}],"buffers":[{"uri":"data:application/octet-stream;base64,","byteLength":10452}]}