{"asset":{"generator":"FME 2022.1.2.0","version":"2.0"},"materials":[{"pbrMetallicRoughness":{"baseColorFactor":[1,1,1,1],"roughnessFactor":0.30000000000000004,"metallicFactor":0.5}}],"meshes":[{"primitives":[{"attributes":{"POSITION":0,"COLOR_0":1},"indices":2,"material":0,"mode":4}]}],"nodes":[{"mesh":0}],"scenes":[{"nodes":[0]}],"scene":0,"accessors":[{"bufferView":0,"byteOffset":0,"componentType":5126,"count":298,"type":"VEC3","min":[3079.72412109375,-10,1221.462158203125],"max":[4473.5361328125,1010,7153.91943359375]},{"bufferView":1,"byteOffset":0,"componentType":5126,"count":298,"type":"VEC3"},{"bufferView":2,"byteOffset":0,"componentType":5123,"count":1776,"type":"SCALAR","min":[0],"max":[297]}],"bufferViews":[{"buffer":0,"byteOffset":0,"byteLength":3576,"target":34962},{"buffer":0,"byteOffset":3576,"byteLength":3576,"target":34962},{"buffer":0,"byteOffset":7152,"byteLength":3552,"target":34963}],"buffers":[{"uri":"data:application/octet-stream;base64,","byteLength":10704}]}