{"asset":{"generator":"FME 2022.1.2.0","version":"2.0"},"materials":[{"pbrMetallicRoughness":{"baseColorFactor":[1,1,1,1],"roughnessFactor":0.30000000000000004,"metallicFactor":0.5}}],"meshes":[{"primitives":[{"attributes":{"POSITION":0,"COLOR_0":1},"indices":2,"material":0,"mode":4}]}],"nodes":[{"mesh":0}],"scenes":[{"nodes":[0]}],"scene":0,"accessors":[{"bufferView":0,"byteOffset":0,"componentType":5126,"count":402,"type":"VEC3","min":[2616.901611328125,-10,3139.221923828125],"max":[4523.8671875,2010,6603.91943359375]},{"bufferView":1,"byteOffset":0,"componentType":5126,"count":402,"type":"VEC3"},{"bufferView":2,"byteOffset":0,"componentType":5123,"count":2400,"type":"SCALAR","min":[0],"max":[401]}],"bufferViews":[{"buffer":0,"byteOffset":0,"byteLength":4824,"target":34962},{"buffer":0,"byteOffset":4824,"byteLength":4824,"target":34962},{"buffer":0,"byteOffset":9648,"byteLength":4800,"target":34963}],"buffers":[{"uri":"data:application/octet-stream;base64,","byteLength":14448}]}