{"asset":{"generator":"FME 2022.1.2.0","version":"2.0"},"materials":[{"pbrMetallicRoughness":{"baseColorFactor":[1,1,1,1],"roughnessFactor":0.30000000000000004,"metallicFactor":0.5}}],"meshes":[{"primitives":[{"attributes":{"POSITION":0,"COLOR_0":1},"indices":2,"material":0,"mode":4}]}],"nodes":[{"mesh":0}],"scenes":[{"nodes":[0]}],"scene":0,"accessors":[{"bufferView":0,"byteOffset":0,"componentType":5126,"count":192,"type":"VEC3","min":[3873.001220703125,-10,5454.1044921875],"max":[4526.6064453125,10,6603.91943359375]},{"bufferView":1,"byteOffset":0,"componentType":5126,"count":192,"type":"VEC3"},{"bufferView":2,"byteOffset":0,"componentType":5121,"count":1140,"type":"SCALAR","min":[0],"max":[191]}],"bufferViews":[{"buffer":0,"byteOffset":0,"byteLength":2304,"target":34962},{"buffer":0,"byteOffset":2304,"byteLength":2304,"target":34962},{"buffer":0,"byteOffset":4608,"byteLength":1140,"target":34963}],"buffers":[{"uri":"data:application/octet-stream;base64,","byteLength":5748}]}