{"asset":{"generator":"FME 2022.1.2.0","version":"2.0"},"materials":[{"pbrMetallicRoughness":{"baseColorFactor":[1,1,1,1],"roughnessFactor":0.30000000000000004,"metallicFactor":0.5}}],"meshes":[{"primitives":[{"attributes":{"POSITION":0,"COLOR_0":1},"indices":2,"material":0,"mode":4}]}],"nodes":[{"mesh":0}],"scenes":[{"nodes":[0]}],"scene":0,"accessors":[{"bufferView":0,"byteOffset":0,"componentType":5126,"count":306,"type":"VEC3","min":[3079.72412109375,-10,1221.462158203125],"max":[4526.6064453125,1510,5624.1044921875]},{"bufferView":1,"byteOffset":0,"componentType":5126,"count":306,"type":"VEC3"},{"bufferView":2,"byteOffset":0,"componentType":5123,"count":1824,"type":"SCALAR","min":[0],"max":[305]}],"bufferViews":[{"buffer":0,"byteOffset":0,"byteLength":3672,"target":34962},{"buffer":0,"byteOffset":3672,"byteLength":3672,"target":34962},{"buffer":0,"byteOffset":7344,"byteLength":3648,"target":34963}],"buffers":[{"uri":"data:application/octet-stream;base64,","byteLength":10992}]}