{"asset":{"generator":"FME 2022.1.2.0","version":"2.0"},"materials":[{"pbrMetallicRoughness":{"baseColorFactor":[1,1,1,1],"roughnessFactor":0.30000000000000004,"metallicFactor":0.5}}],"meshes":[{"primitives":[{"attributes":{"POSITION":0,"COLOR_0":1},"indices":2,"material":0,"mode":4}]}],"nodes":[{"mesh":0}],"scenes":[{"nodes":[0]}],"scene":0,"accessors":[{"bufferView":0,"byteOffset":0,"componentType":5126,"count":126,"type":"VEC3","min":[3023.001220703125,-10,2163.2802734375],"max":[4526.6064453125,10,5624.1044921875]},{"bufferView":1,"byteOffset":0,"componentType":5126,"count":126,"type":"VEC3"},{"bufferView":2,"byteOffset":0,"componentType":5121,"count":744,"type":"SCALAR","min":[0],"max":[125]}],"bufferViews":[{"buffer":0,"byteOffset":0,"byteLength":1512,"target":34962},{"buffer":0,"byteOffset":1512,"byteLength":1512,"target":34962},{"buffer":0,"byteOffset":3024,"byteLength":744,"target":34963}],"buffers":[{"uri":"data:application/octet-stream;base64,","byteLength":3768}]}