{"asset":{"generator":"FME 2022.1.2.0","version":"2.0"},"materials":[{"pbrMetallicRoughness":{"baseColorFactor":[1,1,1,1],"roughnessFactor":0.30000000000000004,"metallicFactor":0.5}}],"meshes":[{"primitives":[{"attributes":{"POSITION":0,"COLOR_0":1},"indices":2,"material":0,"mode":4}]}],"nodes":[{"mesh":0}],"scenes":[{"nodes":[0]}],"scene":0,"accessors":[{"bufferView":0,"byteOffset":0,"componentType":5126,"count":254,"type":"VEC3","min":[3873.001220703125,-10,2106.93896484375],"max":[4734.98681640625,510,5624.1044921875]},{"bufferView":1,"byteOffset":0,"componentType":5126,"count":254,"type":"VEC3"},{"bufferView":2,"byteOffset":0,"componentType":5121,"count":1512,"type":"SCALAR","min":[0],"max":[253]}],"bufferViews":[{"buffer":0,"byteOffset":0,"byteLength":3048,"target":34962},{"buffer":0,"byteOffset":3048,"byteLength":3048,"target":34962},{"buffer":0,"byteOffset":6096,"byteLength":1512,"target":34963}],"buffers":[{"uri":"data:application/octet-stream;base64,","byteLength":7608}]}