{"asset":{"generator":"FME 2022.1.2.0","version":"2.0"},"materials":[{"pbrMetallicRoughness":{"baseColorFactor":[1,1,1,1],"roughnessFactor":0.30000000000000004,"metallicFactor":0.5}}],"meshes":[{"primitives":[{"attributes":{"POSITION":0,"COLOR_0":1},"indices":2,"material":0,"mode":4}]}],"nodes":[{"mesh":0}],"scenes":[{"nodes":[0]}],"scene":0,"accessors":[{"bufferView":0,"byteOffset":0,"componentType":5126,"count":440,"type":"VEC3","min":[2117.423828125,490,7244.60986328125],"max":[3680.80224609375,1510,8274.44140625]},{"bufferView":1,"byteOffset":0,"componentType":5126,"count":440,"type":"VEC3"},{"bufferView":2,"byteOffset":0,"componentType":5123,"count":2628,"type":"SCALAR","min":[0],"max":[439]}],"bufferViews":[{"buffer":0,"byteOffset":0,"byteLength":5280,"target":34962},{"buffer":0,"byteOffset":5280,"byteLength":5280,"target":34962},{"buffer":0,"byteOffset":10560,"byteLength":5256,"target":34963}],"buffers":[{"uri":"data:application/octet-stream;base64,","byteLength":15816}]}