{"asset":{"generator":"FME 2022.1.2.0","version":"2.0"},"materials":[{"pbrMetallicRoughness":{"baseColorFactor":[1,1,1,1],"roughnessFactor":0.30000000000000004,"metallicFactor":0.5}}],"meshes":[{"primitives":[{"attributes":{"POSITION":0,"COLOR_0":1},"indices":2,"material":0,"mode":4}]}],"nodes":[{"mesh":0}],"scenes":[{"nodes":[0]}],"scene":0,"accessors":[{"bufferView":0,"byteOffset":0,"componentType":5126,"count":399,"type":"VEC3","min":[2117.423828125,490,5555.70361328125],"max":[4523.5361328125,1010,7583.2802734375]},{"bufferView":1,"byteOffset":0,"componentType":5126,"count":399,"type":"VEC3"},{"bufferView":2,"byteOffset":0,"componentType":5123,"count":2382,"type":"SCALAR","min":[0],"max":[398]}],"bufferViews":[{"buffer":0,"byteOffset":0,"byteLength":4788,"target":34962},{"buffer":0,"byteOffset":4788,"byteLength":4788,"target":34962},{"buffer":0,"byteOffset":9576,"byteLength":4764,"target":34963}],"buffers":[{"uri":"data:application/octet-stream;base64,","byteLength":14340}]}