{"asset":{"generator":"FME 2022.1.2.0","version":"2.0"},"materials":[{"pbrMetallicRoughness":{"baseColorFactor":[1,1,1,1],"roughnessFactor":0.30000000000000004,"metallicFactor":0.5}}],"meshes":[{"primitives":[{"attributes":{"POSITION":0,"COLOR_0":1},"indices":2,"material":0,"mode":4}]}],"nodes":[{"mesh":0}],"scenes":[{"nodes":[0]}],"scene":0,"accessors":[{"bufferView":0,"byteOffset":0,"componentType":5126,"count":228,"type":"VEC3","min":[2666.901611328125,-510,1809.1082763671875],"max":[4326.97412109375,1510,3702.02197265625]},{"bufferView":1,"byteOffset":0,"componentType":5126,"count":228,"type":"VEC3"},{"bufferView":2,"byteOffset":0,"componentType":5121,"count":1356,"type":"SCALAR","min":[0],"max":[227]}],"bufferViews":[{"buffer":0,"byteOffset":0,"byteLength":2736,"target":34962},{"buffer":0,"byteOffset":2736,"byteLength":2736,"target":34962},{"buffer":0,"byteOffset":5472,"byteLength":1356,"target":34963}],"buffers":[{"uri":"data:application/octet-stream;base64,","byteLength":6828}]}