{"asset":{"generator":"FME 2022.1.2.0","version":"2.0"},"materials":[{"pbrMetallicRoughness":{"baseColorFactor":[1,1,1,1],"roughnessFactor":0.30000000000000004,"metallicFactor":0.5}}],"meshes":[{"primitives":[{"attributes":{"POSITION":0,"COLOR_0":1},"indices":2,"material":0,"mode":4}]}],"nodes":[{"mesh":0}],"scenes":[{"nodes":[0]}],"scene":0,"accessors":[{"bufferView":0,"byteOffset":0,"componentType":5126,"count":314,"type":"VEC3","min":[2664.176513671875,-510,1809.1082763671875],"max":[4734.98681640625,510,4972.58642578125]},{"bufferView":1,"byteOffset":0,"componentType":5126,"count":314,"type":"VEC3"},{"bufferView":2,"byteOffset":0,"componentType":5123,"count":1872,"type":"SCALAR","min":[0],"max":[313]}],"bufferViews":[{"buffer":0,"byteOffset":0,"byteLength":3768,"target":34962},{"buffer":0,"byteOffset":3768,"byteLength":3768,"target":34962},{"buffer":0,"byteOffset":7536,"byteLength":3744,"target":34963}],"buffers":[{"uri":"data:application/octet-stream;base64,","byteLength":11280}]}