{"asset":{"generator":"FME 2022.1.2.0","version":"2.0"},"materials":[{"pbrMetallicRoughness":{"baseColorFactor":[1,1,1,1],"roughnessFactor":0.30000000000000004,"metallicFactor":0.5}}],"meshes":[{"primitives":[{"attributes":{"POSITION":0,"COLOR_0":1},"indices":2,"material":0,"mode":4}]}],"nodes":[{"mesh":0}],"scenes":[{"nodes":[0]}],"scene":0,"accessors":[{"bufferView":0,"byteOffset":0,"componentType":5126,"count":476,"type":"VEC3","min":[2117.423828125,490,6030.53076171875],"max":[4525.51416015625,1510,8182.740234375]},{"bufferView":1,"byteOffset":0,"componentType":5126,"count":476,"type":"VEC3"},{"bufferView":2,"byteOffset":0,"componentType":5123,"count":2844,"type":"SCALAR","min":[0],"max":[475]}],"bufferViews":[{"buffer":0,"byteOffset":0,"byteLength":5712,"target":34962},{"buffer":0,"byteOffset":5712,"byteLength":5712,"target":34962},{"buffer":0,"byteOffset":11424,"byteLength":5688,"target":34963}],"buffers":[{"uri":"data:application/octet-stream;base64,","byteLength":17112}]}