{"asset":{"generator":"FME 2022.1.2.0","version":"2.0"},"materials":[{"pbrMetallicRoughness":{"baseColorFactor":[1,1,1,1],"roughnessFactor":0.30000000000000004,"metallicFactor":0.5}}],"meshes":[{"primitives":[{"attributes":{"POSITION":0,"COLOR_0":1},"indices":2,"material":0,"mode":4}]}],"nodes":[{"mesh":0}],"scenes":[{"nodes":[0]}],"scene":0,"accessors":[{"bufferView":0,"byteOffset":0,"componentType":5126,"count":403,"type":"VEC3","min":[3076.476806640625,490,534.8037109375],"max":[4571.44873046875,1010,6200.53076171875]},{"bufferView":1,"byteOffset":0,"componentType":5126,"count":403,"type":"VEC3"},{"bufferView":2,"byteOffset":0,"componentType":5123,"count":2406,"type":"SCALAR","min":[0],"max":[402]}],"bufferViews":[{"buffer":0,"byteOffset":0,"byteLength":4836,"target":34962},{"buffer":0,"byteOffset":4836,"byteLength":4836,"target":34962},{"buffer":0,"byteOffset":9672,"byteLength":4812,"target":34963}],"buffers":[{"uri":"data:application/octet-stream;base64,","byteLength":14484}]}