{"asset":{"generator":"FME 2022.1.2.0","version":"2.0"},"materials":[{"pbrMetallicRoughness":{"baseColorFactor":[1,1,1,1],"roughnessFactor":0.30000000000000004,"metallicFactor":0.5}}],"meshes":[{"primitives":[{"attributes":{"POSITION":0,"COLOR_0":1},"indices":2,"material":0,"mode":4}]}],"nodes":[{"mesh":0}],"scenes":[{"nodes":[0]}],"scene":0,"accessors":[{"bufferView":0,"byteOffset":0,"componentType":5126,"count":363,"type":"VEC3","min":[2117.423828125,490,4752.58642578125],"max":[4524.8125,1010,8124.44189453125]},{"bufferView":1,"byteOffset":0,"componentType":5126,"count":363,"type":"VEC3"},{"bufferView":2,"byteOffset":0,"componentType":5123,"count":2166,"type":"SCALAR","min":[0],"max":[362]}],"bufferViews":[{"buffer":0,"byteOffset":0,"byteLength":4356,"target":34962},{"buffer":0,"byteOffset":4356,"byteLength":4356,"target":34962},{"buffer":0,"byteOffset":8712,"byteLength":4332,"target":34963}],"buffers":[{"uri":"data:application/octet-stream;base64,","byteLength":13044}]}