{"asset":{"generator":"FME 2022.1.2.0","version":"2.0"},"materials":[{"pbrMetallicRoughness":{"baseColorFactor":[1,1,1,1],"roughnessFactor":0.30000000000000004,"metallicFactor":0.5}}],"meshes":[{"primitives":[{"attributes":{"POSITION":0,"COLOR_0":1},"indices":2,"material":0,"mode":4}]}],"nodes":[{"mesh":0}],"scenes":[{"nodes":[0]}],"scene":0,"accessors":[{"bufferView":0,"byteOffset":0,"componentType":5126,"count":376,"type":"VEC3","min":[3822.71728515625,490,2706.93896484375],"max":[4734.98681640625,1510,4363.6064453125]},{"bufferView":1,"byteOffset":0,"componentType":5126,"count":376,"type":"VEC3"},{"bufferView":2,"byteOffset":0,"componentType":5123,"count":2244,"type":"SCALAR","min":[0],"max":[375]}],"bufferViews":[{"buffer":0,"byteOffset":0,"byteLength":4512,"target":34962},{"buffer":0,"byteOffset":4512,"byteLength":4512,"target":34962},{"buffer":0,"byteOffset":9024,"byteLength":4488,"target":34963}],"buffers":[{"uri":"data:application/octet-stream;base64,","byteLength":13512}]}