{"asset":{"generator":"FME 2022.1.2.0","version":"2.0"},"materials":[{"pbrMetallicRoughness":{"baseColorFactor":[1,1,1,1],"roughnessFactor":0.30000000000000004,"metallicFactor":0.5}}],"meshes":[{"primitives":[{"attributes":{"POSITION":0,"COLOR_0":1},"indices":2,"material":0,"mode":4}]}],"nodes":[{"mesh":0}],"scenes":[{"nodes":[0]}],"scene":0,"accessors":[{"bufferView":0,"byteOffset":0,"componentType":5126,"count":206,"type":"VEC3","min":[3079.72412109375,-510,1221.462158203125],"max":[4525.439453125,-490,6200.53076171875]},{"bufferView":1,"byteOffset":0,"componentType":5126,"count":206,"type":"VEC3"},{"bufferView":2,"byteOffset":0,"componentType":5121,"count":1224,"type":"SCALAR","min":[0],"max":[205]}],"bufferViews":[{"buffer":0,"byteOffset":0,"byteLength":2472,"target":34962},{"buffer":0,"byteOffset":2472,"byteLength":2472,"target":34962},{"buffer":0,"byteOffset":4944,"byteLength":1224,"target":34963}],"buffers":[{"uri":"data:application/octet-stream;base64,","byteLength":6168}]}