{"asset":{"generator":"FME 2022.1.2.0","version":"2.0"},"materials":[{"pbrMetallicRoughness":{"baseColorFactor":[1,1,1,1],"roughnessFactor":0.30000000000000004,"metallicFactor":0.5}}],"meshes":[{"primitives":[{"attributes":{"POSITION":0,"COLOR_0":1},"indices":2,"material":0,"mode":4}]}],"nodes":[{"mesh":0}],"scenes":[{"nodes":[0]}],"scene":0,"accessors":[{"bufferView":0,"byteOffset":0,"componentType":5126,"count":503,"type":"VEC3","min":[2666.901611328125,-510,534.8037109375],"max":[4571.44873046875,510,3102.02197265625]},{"bufferView":1,"byteOffset":0,"componentType":5126,"count":503,"type":"VEC3"},{"bufferView":2,"byteOffset":0,"componentType":5123,"count":3006,"type":"SCALAR","min":[0],"max":[502]}],"bufferViews":[{"buffer":0,"byteOffset":0,"byteLength":6036,"target":34962},{"buffer":0,"byteOffset":6036,"byteLength":6036,"target":34962},{"buffer":0,"byteOffset":12072,"byteLength":6012,"target":34963}],"buffers":[{"uri":"data:application/octet-stream;base64,","byteLength":18084}]}