{"asset":{"generator":"FME 2022.1.2.0","version":"2.0"},"materials":[{"pbrMetallicRoughness":{"baseColorFactor":[1,1,1,1],"roughnessFactor":0.30000000000000004,"metallicFactor":0.5}}],"meshes":[{"primitives":[{"attributes":{"POSITION":0,"COLOR_0":1},"indices":2,"material":0,"mode":4}]}],"nodes":[{"mesh":0}],"scenes":[{"nodes":[0]}],"scene":0,"accessors":[{"bufferView":0,"byteOffset":0,"componentType":5126,"count":118,"type":"VEC3","min":[2670.23193359375,990,1221.462158203125],"max":[3405.68359375,1010,2760.888916015625]},{"bufferView":1,"byteOffset":0,"componentType":5126,"count":118,"type":"VEC3"},{"bufferView":2,"byteOffset":0,"componentType":5121,"count":696,"type":"SCALAR","min":[0],"max":[117]}],"bufferViews":[{"buffer":0,"byteOffset":0,"byteLength":1416,"target":34962},{"buffer":0,"byteOffset":1416,"byteLength":1416,"target":34962},{"buffer":0,"byteOffset":2832,"byteLength":696,"target":34963}],"buffers":[{"uri":"data:application/octet-stream;base64,","byteLength":3528}]}