{"asset":{"generator":"FME 2022.1.2.0","version":"2.0"},"materials":[{"pbrMetallicRoughness":{"baseColorFactor":[1,1,1,1],"roughnessFactor":0.30000000000000004,"metallicFactor":0.5}}],"meshes":[{"primitives":[{"attributes":{"POSITION":0,"COLOR_0":1},"indices":2,"material":0,"mode":4}]}],"nodes":[{"mesh":0}],"scenes":[{"nodes":[0]}],"scene":0,"accessors":[{"bufferView":0,"byteOffset":0,"componentType":5126,"count":162,"type":"VEC3","min":[2614.176513671875,990,4629.47119140625],"max":[4523.5361328125,1010,6826.71826171875]},{"bufferView":1,"byteOffset":0,"componentType":5126,"count":162,"type":"VEC3"},{"bufferView":2,"byteOffset":0,"componentType":5121,"count":960,"type":"SCALAR","min":[0],"max":[161]}],"bufferViews":[{"buffer":0,"byteOffset":0,"byteLength":1944,"target":34962},{"buffer":0,"byteOffset":1944,"byteLength":1944,"target":34962},{"buffer":0,"byteOffset":3888,"byteLength":960,"target":34963}],"buffers":[{"uri":"data:application/octet-stream;base64,","byteLength":4848}]}