{"asset":{"generator":"FME 2022.1.2.0","version":"2.0"},"materials":[{"pbrMetallicRoughness":{"baseColorFactor":[1,1,1,1],"roughnessFactor":0.30000000000000004,"metallicFactor":0.5}}],"meshes":[{"primitives":[{"attributes":{"POSITION":0,"COLOR_0":1},"indices":2,"material":0,"mode":4}]}],"nodes":[{"mesh":0}],"scenes":[{"nodes":[0]}],"scene":0,"accessors":[{"bufferView":0,"byteOffset":0,"componentType":5126,"count":134,"type":"VEC3","min":[2603.523193359375,990,5555.70361328125],"max":[3042.322998046875,1010,6737.439453125]},{"bufferView":1,"byteOffset":0,"componentType":5126,"count":134,"type":"VEC3"},{"bufferView":2,"byteOffset":0,"componentType":5121,"count":792,"type":"SCALAR","min":[0],"max":[133]}],"bufferViews":[{"buffer":0,"byteOffset":0,"byteLength":1608,"target":34962},{"buffer":0,"byteOffset":1608,"byteLength":1608,"target":34962},{"buffer":0,"byteOffset":3216,"byteLength":792,"target":34963}],"buffers":[{"uri":"data:application/octet-stream;base64,","byteLength":4008}]}