{"asset":{"generator":"FME 2022.1.2.0","version":"2.0"},"materials":[{"pbrMetallicRoughness":{"baseColorFactor":[1,1,1,1],"roughnessFactor":0.30000000000000004,"metallicFactor":0.5}}],"meshes":[{"primitives":[{"attributes":{"POSITION":0,"COLOR_0":1},"indices":2,"material":0,"mode":4}]}],"nodes":[{"mesh":0}],"scenes":[{"nodes":[0]}],"scene":0,"accessors":[{"bufferView":0,"byteOffset":0,"componentType":5126,"count":328,"type":"VEC3","min":[2456.551025390625,990,3139.221923828125],"max":[4326.97412109375,2010,6231.43701171875]},{"bufferView":1,"byteOffset":0,"componentType":5126,"count":328,"type":"VEC3"},{"bufferView":2,"byteOffset":0,"componentType":5123,"count":1956,"type":"SCALAR","min":[0],"max":[327]}],"bufferViews":[{"buffer":0,"byteOffset":0,"byteLength":3936,"target":34962},{"buffer":0,"byteOffset":3936,"byteLength":3936,"target":34962},{"buffer":0,"byteOffset":7872,"byteLength":3912,"target":34963}],"buffers":[{"uri":"data:application/octet-stream;base64,","byteLength":11784}]}