{"asset":{"generator":"FME 2022.1.2.0","version":"2.0"},"materials":[{"pbrMetallicRoughness":{"baseColorFactor":[1,1,1,1],"roughnessFactor":0.30000000000000004,"metallicFactor":0.5}}],"meshes":[{"primitives":[{"attributes":{"POSITION":0,"COLOR_0":1},"indices":2,"material":0,"mode":4}]}],"nodes":[{"mesh":0}],"scenes":[{"nodes":[0]}],"scene":0,"accessors":[{"bufferView":0,"byteOffset":0,"componentType":5126,"count":268,"type":"VEC3","min":[2670.23193359375,990,1990.8887939453125],"max":[4515.03662109375,2010,8182.740234375]},{"bufferView":1,"byteOffset":0,"componentType":5126,"count":268,"type":"VEC3"},{"bufferView":2,"byteOffset":0,"componentType":5123,"count":1596,"type":"SCALAR","min":[0],"max":[267]}],"bufferViews":[{"buffer":0,"byteOffset":0,"byteLength":3216,"target":34962},{"buffer":0,"byteOffset":3216,"byteLength":3216,"target":34962},{"buffer":0,"byteOffset":6432,"byteLength":3192,"target":34963}],"buffers":[{"uri":"data:application/octet-stream;base64,","byteLength":9624}]}