{"asset":{"generator":"FME 2022.1.2.0","version":"2.0"},"materials":[{"pbrMetallicRoughness":{"baseColorFactor":[1,1,1,1],"roughnessFactor":0.30000000000000004,"metallicFactor":0.5}}],"meshes":[{"primitives":[{"attributes":{"POSITION":0,"COLOR_0":1},"indices":2,"material":0,"mode":4}]}],"nodes":[{"mesh":0}],"scenes":[{"nodes":[0]}],"scene":0,"accessors":[{"bufferView":0,"byteOffset":0,"componentType":5126,"count":319,"type":"VEC3","min":[2117.423828125,990,7244.60986328125],"max":[4515.03662109375,1510,8274.44140625]},{"bufferView":1,"byteOffset":0,"componentType":5126,"count":319,"type":"VEC3"},{"bufferView":2,"byteOffset":0,"componentType":5123,"count":1902,"type":"SCALAR","min":[0],"max":[318]}],"bufferViews":[{"buffer":0,"byteOffset":0,"byteLength":3828,"target":34962},{"buffer":0,"byteOffset":3828,"byteLength":3828,"target":34962},{"buffer":0,"byteOffset":7656,"byteLength":3804,"target":34963}],"buffers":[{"uri":"data:application/octet-stream;base64,","byteLength":11460}]}