{
    "asset" : {
        "generator" : "Khronos glTF Blender I/O v3.4.50",
        "version" : "2.0"
    },
    "extensionsUsed" : [
        "KHR_materials_specular"
    ],
    "scene" : 0,
    "scenes" : [
        {
            "name" : "Scene",
            "nodes" : [
                0
            ]
        }
    ],
    "nodes" : [
        {
            "mesh" : 0,
            "name" : "18.001",
            "rotation" : [
                0,
                0.7071066498756409,
                0,
                0.7071069478988647
            ],
            "scale" : [
                0.2295118272304535,
                0.22951184213161469,
                0.2295118272304535
            ],
            "translation" : [
                341.2033386230469,
                50,
                1751.3077392578125
            ]
        }
    ],
    "materials" : [
        {
            "doubleSided" : true,
            "extensions" : {
                "KHR_materials_specular" : {
                    "specularColorTexture" : {
                        "index" : 0
                    }
                }
            },
            "name" : "default_material.003",
            "pbrMetallicRoughness" : {
                "baseColorTexture" : {
                    "index" : 1
                },
                "metallicFactor" : 0.2293577939271927
            }
        }
    ],
    "meshes" : [
        {
            "name" : "18.002",
            "primitives" : [
                {
                    "attributes" : {
                        "POSITION" : 0,
                        "NORMAL" : 1
                    },
                    "indices" : 2,
                    "material" : 0
                }
            ]
        }
    ],
    "textures" : [
        {
            "sampler" : 0,
            "source" : 0
        },
        {
            "sampler" : 0,
            "source" : 1
        }
    ],
    "images" : [
        {
            "bufferView" : 3,
            "mimeType" : "image/png",
            "name" : "Image"
        },
        {
            "bufferView" : 4,
            "mimeType" : "image/png",
            "name" : "background4"
        }
    ],
    "accessors" : [
        {
            "bufferView" : 0,
            "componentType" : 5126,
            "count" : 3349,
            "max" : [
                6585.74853515625,
                35.74354553222656,
                1038.1519775390625
            ],
            "min" : [
                -1002.24853515625,
                -1.52587890625e-05,
                -308.8504943847656
            ],
            "type" : "VEC3"
        },
        {
            "bufferView" : 1,
            "componentType" : 5126,
            "count" : 3349,
            "type" : "VEC3"
        },
        {
            "bufferView" : 2,
            "componentType" : 5123,
            "count" : 4908,
            "type" : "SCALAR"
        }
    ],
    "bufferViews" : [
        {
            "buffer" : 0,
            "byteLength" : 40188,
            "byteOffset" : 0,
            "target" : 34962
        },
        {
            "buffer" : 0,
            "byteLength" : 40188,
            "byteOffset" : 40188,
            "target" : 34962
        },
        {
            "buffer" : 0,
            "byteLength" : 9816,
            "byteOffset" : 80376,
            "target" : 34963
        },
        {
            "buffer" : 0,
            "byteLength" : 1339,
            "byteOffset" : 90192
        },
        {
            "buffer" : 0,
            "byteLength" : 1691,
            "byteOffset" : 91532
        }
    ],
    "samplers" : [
        {
            "magFilter" : 9729,
            "minFilter" : 9987
        }
    ],
    "buffers" : [
        {
            "byteLength" : 93224,
            "uri" : "data:application/octet-stream;base64,"
        }
    ]
}
