{
    "asset" : {
        "generator" : "Khronos glTF Blender I/O v3.4.50",
        "version" : "2.0"
    },
    "extensionsUsed" : [
        "KHR_materials_specular"
    ],
    "scene" : 0,
    "scenes" : [
        {
            "name" : "Scene",
            "nodes" : [
                0
            ]
        }
    ],
    "nodes" : [
        {
            "mesh" : 0,
            "name" : "33.003",
            "rotation" : [
                0,
                0.6521472930908203,
                0,
                0.7580922842025757
            ],
            "scale" : [
                0.38248398900032043,
                0.3824838697910309,
                0.38248398900032043
            ],
            "translation" : [
                -1310.65673828125,
                0,
                761.0611572265625
            ]
        }
    ],
    "materials" : [
        {
            "doubleSided" : true,
            "extensions" : {
                "KHR_materials_specular" : {
                    "specularColorFactor" : [
                        0.4770642220973968,
                        0.4770642220973968,
                        0.4770642220973968
                    ]
                }
            },
            "name" : "default_material",
            "pbrMetallicRoughness" : {
                "baseColorTexture" : {
                    "index" : 0
                },
                "metallicFactor" : 0.2293577939271927
            }
        }
    ],
    "meshes" : [
        {
            "name" : "33.003",
            "primitives" : [
                {
                    "attributes" : {
                        "POSITION" : 0,
                        "NORMAL" : 1
                    },
                    "indices" : 2,
                    "material" : 0
                }
            ]
        }
    ],
    "textures" : [
        {
            "sampler" : 0,
            "source" : 0
        }
    ],
    "images" : [
        {
            "bufferView" : 3,
            "mimeType" : "image/png",
            "name" : "background4"
        }
    ],
    "accessors" : [
        {
            "bufferView" : 0,
            "componentType" : 5126,
            "count" : 5200,
            "max" : [
                1275.0849609375,
                22.33881378173828,
                1943.8092041015625
            ],
            "min" : [
                -2451.43212890625,
                -24.99998664855957,
                -844.5862426757812
            ],
            "type" : "VEC3"
        },
        {
            "bufferView" : 1,
            "componentType" : 5126,
            "count" : 5200,
            "type" : "VEC3"
        },
        {
            "bufferView" : 2,
            "componentType" : 5123,
            "count" : 7692,
            "type" : "SCALAR"
        }
    ],
    "bufferViews" : [
        {
            "buffer" : 0,
            "byteLength" : 62400,
            "byteOffset" : 0,
            "target" : 34962
        },
        {
            "buffer" : 0,
            "byteLength" : 62400,
            "byteOffset" : 62400,
            "target" : 34962
        },
        {
            "buffer" : 0,
            "byteLength" : 15384,
            "byteOffset" : 124800,
            "target" : 34963
        },
        {
            "buffer" : 0,
            "byteLength" : 1691,
            "byteOffset" : 140184
        }
    ],
    "samplers" : [
        {
            "magFilter" : 9729,
            "minFilter" : 9987
        }
    ],
    "buffers" : [
        {
            "byteLength" : 141876,
            "uri" : "data:application/octet-stream;base64,"
        }
    ]
}
