{"asset":{"generator":"FME 2022.1.2.0","version":"2.0"},"materials":[{"pbrMetallicRoughness":{"baseColorFactor":[1,1,1,1],"roughnessFactor":0.30000000000000004,"metallicFactor":0.5}}],"meshes":[{"primitives":[{"attributes":{"POSITION":0,"COLOR_0":1},"indices":2,"material":0,"mode":4}]}],"nodes":[{"mesh":0}],"scenes":[{"nodes":[0]}],"scene":0,"accessors":[{"bufferView":0,"byteOffset":0,"componentType":5126,"count":148,"type":"VEC3","min":[3079.72412109375,1490,1221.462158203125],"max":[4484.98681640625,1510,2126.93896484375]},{"bufferView":1,"byteOffset":0,"componentType":5126,"count":148,"type":"VEC3"},{"bufferView":2,"byteOffset":0,"componentType":5121,"count":876,"type":"SCALAR","min":[0],"max":[147]}],"bufferViews":[{"buffer":0,"byteOffset":0,"byteLength":1776,"target":34962},{"buffer":0,"byteOffset":1776,"byteLength":1776,"target":34962},{"buffer":0,"byteOffset":3552,"byteLength":876,"target":34963}],"buffers":[{"uri":"data:application/octet-stream;base64,","byteLength":4428}]}