{"asset":{"generator":"FME 2022.1.2.0","version":"2.0"},"materials":[{"pbrMetallicRoughness":{"baseColorFactor":[1,1,1,1],"roughnessFactor":0.30000000000000004,"metallicFactor":0.5}}],"meshes":[{"primitives":[{"attributes":{"POSITION":0,"COLOR_0":1},"indices":2,"material":0,"mode":4}]}],"nodes":[{"mesh":0}],"scenes":[{"nodes":[0]}],"scene":0,"accessors":[{"bufferView":0,"byteOffset":0,"componentType":5126,"count":150,"type":"VEC3","min":[3079.02294921875,1990,545.8779907226562],"max":[4525.439453125,2010,6200.53076171875]},{"bufferView":1,"byteOffset":0,"componentType":5126,"count":150,"type":"VEC3"},{"bufferView":2,"byteOffset":0,"componentType":5121,"count":888,"type":"SCALAR","min":[0],"max":[149]}],"bufferViews":[{"buffer":0,"byteOffset":0,"byteLength":1800,"target":34962},{"buffer":0,"byteOffset":1800,"byteLength":1800,"target":34962},{"buffer":0,"byteOffset":3600,"byteLength":888,"target":34963}],"buffers":[{"uri":"data:application/octet-stream;base64,","byteLength":4488}]}