{"asset":{"generator":"FME 2022.1.2.0","version":"2.0"},"materials":[{"pbrMetallicRoughness":{"baseColorFactor":[1,1,1,1],"roughnessFactor":0.30000000000000004,"metallicFactor":0.5}}],"meshes":[{"primitives":[{"attributes":{"POSITION":0,"COLOR_0":1},"indices":2,"material":0,"mode":4}]}],"nodes":[{"mesh":0}],"scenes":[{"nodes":[0]}],"scene":0,"accessors":[{"bufferView":0,"byteOffset":0,"componentType":5126,"count":166,"type":"VEC3","min":[2603.523193359375,1990,6359.701171875],"max":[4519.2705078125,2010,7403.91943359375]},{"bufferView":1,"byteOffset":0,"componentType":5126,"count":166,"type":"VEC3"},{"bufferView":2,"byteOffset":0,"componentType":5121,"count":984,"type":"SCALAR","min":[0],"max":[165]}],"bufferViews":[{"buffer":0,"byteOffset":0,"byteLength":1992,"target":34962},{"buffer":0,"byteOffset":1992,"byteLength":1992,"target":34962},{"buffer":0,"byteOffset":3984,"byteLength":984,"target":34963}],"buffers":[{"uri":"data:application/octet-stream;base64,","byteLength":4968}]}