{"asset":{"generator":"FME 2022.1.2.0","version":"2.0"},"materials":[{"pbrMetallicRoughness":{"baseColorFactor":[1,1,1,1],"roughnessFactor":0.30000000000000004,"metallicFactor":0.5}}],"meshes":[{"primitives":[{"attributes":{"POSITION":0,"COLOR_0":1},"indices":2,"material":0,"mode":4}]}],"nodes":[{"mesh":0}],"scenes":[{"nodes":[0]}],"scene":0,"accessors":[{"bufferView":0,"byteOffset":0,"componentType":5126,"count":564,"type":"VEC3","min":[2117.423828125,-510,7233.91943359375],"max":[4523.39111328125,510,8132.740234375]},{"bufferView":1,"byteOffset":0,"componentType":5126,"count":564,"type":"VEC3"},{"bufferView":2,"byteOffset":0,"componentType":5123,"count":3372,"type":"SCALAR","min":[0],"max":[563]}],"bufferViews":[{"buffer":0,"byteOffset":0,"byteLength":6768,"target":34962},{"buffer":0,"byteOffset":6768,"byteLength":6768,"target":34962},{"buffer":0,"byteOffset":13536,"byteLength":6744,"target":34963}],"buffers":[{"uri":"data:application/octet-stream;base64,","byteLength":20280}]}