{"asset":{"generator":"FME 2022.1.2.0","version":"2.0"},"materials":[{"pbrMetallicRoughness":{"baseColorFactor":[1,1,1,1],"roughnessFactor":0.30000000000000004,"metallicFactor":0.5}}],"meshes":[{"primitives":[{"attributes":{"POSITION":0,"COLOR_0":1},"indices":2,"material":0,"mode":4}]}],"nodes":[{"mesh":0}],"scenes":[{"nodes":[0]}],"scene":0,"accessors":[{"bufferView":0,"byteOffset":0,"componentType":5126,"count":168,"type":"VEC3","min":[2606.551025390625,-510,1809.1082763671875],"max":[3450.917724609375,-490,5881.43701171875]},{"bufferView":1,"byteOffset":0,"componentType":5126,"count":168,"type":"VEC3"},{"bufferView":2,"byteOffset":0,"componentType":5121,"count":996,"type":"SCALAR","min":[0],"max":[167]}],"bufferViews":[{"buffer":0,"byteOffset":0,"byteLength":2016,"target":34962},{"buffer":0,"byteOffset":2016,"byteLength":2016,"target":34962},{"buffer":0,"byteOffset":4032,"byteLength":996,"target":34963}],"buffers":[{"uri":"data:application/octet-stream;base64,","byteLength":5028}]}