{"asset":{"generator":"FME 2022.1.2.0","version":"2.0"},"materials":[{"pbrMetallicRoughness":{"baseColorFactor":[1,1,1,1],"roughnessFactor":0.30000000000000004,"metallicFactor":0.5}}],"meshes":[{"primitives":[{"attributes":{"POSITION":0,"COLOR_0":1},"indices":2,"material":0,"mode":4}]}],"nodes":[{"mesh":0}],"scenes":[{"nodes":[0]}],"scene":0,"accessors":[{"bufferView":0,"byteOffset":0,"componentType":5126,"count":104,"type":"VEC3","min":[4353.5361328125,-10,6193.5859375],"max":[4523.8671875,10,7153.91943359375]},{"bufferView":1,"byteOffset":0,"componentType":5126,"count":104,"type":"VEC3"},{"bufferView":2,"byteOffset":0,"componentType":5121,"count":612,"type":"SCALAR","min":[0],"max":[103]}],"bufferViews":[{"buffer":0,"byteOffset":0,"byteLength":1248,"target":34962},{"buffer":0,"byteOffset":1248,"byteLength":1248,"target":34962},{"buffer":0,"byteOffset":2496,"byteLength":612,"target":34963}],"buffers":[{"uri":"data:application/octet-stream;base64,","byteLength":3108}]}