{"asset":{"generator":"FME 2022.1.2.0","version":"2.0"},"materials":[{"pbrMetallicRoughness":{"baseColorFactor":[1,1,1,1],"roughnessFactor":0.30000000000000004,"metallicFactor":0.5}}],"meshes":[{"primitives":[{"attributes":{"POSITION":0,"COLOR_0":1},"indices":2,"material":0,"mode":4}]}],"nodes":[{"mesh":0}],"scenes":[{"nodes":[0]}],"scene":0,"accessors":[{"bufferView":0,"byteOffset":0,"componentType":5126,"count":172,"type":"VEC3","min":[2666.901611328125,490,3082.02197265625],"max":[4523.9150390625,510,4972.58642578125]},{"bufferView":1,"byteOffset":0,"componentType":5126,"count":172,"type":"VEC3"},{"bufferView":2,"byteOffset":0,"componentType":5121,"count":1020,"type":"SCALAR","min":[0],"max":[171]}],"bufferViews":[{"buffer":0,"byteOffset":0,"byteLength":2064,"target":34962},{"buffer":0,"byteOffset":2064,"byteLength":2064,"target":34962},{"buffer":0,"byteOffset":4128,"byteLength":1020,"target":34963}],"buffers":[{"uri":"data:application/octet-stream;base64,","byteLength":5148}]}