{"asset":{"generator":"FME 2022.1.2.0","version":"2.0"},"materials":[{"pbrMetallicRoughness":{"baseColorFactor":[1,1,1,1],"roughnessFactor":0.30000000000000004,"metallicFactor":0.5}}],"meshes":[{"primitives":[{"attributes":{"POSITION":0,"COLOR_0":1},"indices":2,"material":0,"mode":4}]}],"nodes":[{"mesh":0}],"scenes":[{"nodes":[0]}],"scene":0,"accessors":[{"bufferView":0,"byteOffset":0,"componentType":5126,"count":365,"type":"VEC3","min":[2117.423828125,490,4193.6064453125],"max":[4523.9150390625,1010,7583.2802734375]},{"bufferView":1,"byteOffset":0,"componentType":5126,"count":365,"type":"VEC3"},{"bufferView":2,"byteOffset":0,"componentType":5123,"count":2178,"type":"SCALAR","min":[0],"max":[364]}],"bufferViews":[{"buffer":0,"byteOffset":0,"byteLength":4380,"target":34962},{"buffer":0,"byteOffset":4380,"byteLength":4380,"target":34962},{"buffer":0,"byteOffset":8760,"byteLength":4356,"target":34963}],"buffers":[{"uri":"data:application/octet-stream;base64,","byteLength":13116}]}