{"asset":{"generator":"FME 2022.1.2.0","version":"2.0"},"materials":[{"pbrMetallicRoughness":{"baseColorFactor":[1,1,1,1],"roughnessFactor":0.30000000000000004,"metallicFactor":0.5}}],"meshes":[{"primitives":[{"attributes":{"POSITION":0,"COLOR_0":1},"indices":2,"material":0,"mode":4}]}],"nodes":[{"mesh":0}],"scenes":[{"nodes":[0]}],"scene":0,"accessors":[{"bufferView":0,"byteOffset":0,"componentType":5126,"count":208,"type":"VEC3","min":[2609.6318359375,990,4759.701171875],"max":[4524.8125,1010,6231.43701171875]},{"bufferView":1,"byteOffset":0,"componentType":5126,"count":208,"type":"VEC3"},{"bufferView":2,"byteOffset":0,"componentType":5121,"count":1236,"type":"SCALAR","min":[0],"max":[207]}],"bufferViews":[{"buffer":0,"byteOffset":0,"byteLength":2496,"target":34962},{"buffer":0,"byteOffset":2496,"byteLength":2496,"target":34962},{"buffer":0,"byteOffset":4992,"byteLength":1236,"target":34963}],"buffers":[{"uri":"data:application/octet-stream;base64,","byteLength":6228}]}