{"asset":{"generator":"FME 2022.1.2.0","version":"2.0"},"materials":[{"pbrMetallicRoughness":{"baseColorFactor":[1,1,1,1],"roughnessFactor":0.30000000000000004,"metallicFactor":0.5}}],"meshes":[{"primitives":[{"attributes":{"POSITION":0,"COLOR_0":1},"indices":2,"material":0,"mode":4}]}],"nodes":[{"mesh":0}],"scenes":[{"nodes":[0]}],"scene":0,"accessors":[{"bufferView":0,"byteOffset":0,"componentType":5126,"count":220,"type":"VEC3","min":[2609.6318359375,990,5555.70361328125],"max":[4523.5361328125,1010,6826.71826171875]},{"bufferView":1,"byteOffset":0,"componentType":5126,"count":220,"type":"VEC3"},{"bufferView":2,"byteOffset":0,"componentType":5121,"count":1308,"type":"SCALAR","min":[0],"max":[219]}],"bufferViews":[{"buffer":0,"byteOffset":0,"byteLength":2640,"target":34962},{"buffer":0,"byteOffset":2640,"byteLength":2640,"target":34962},{"buffer":0,"byteOffset":5280,"byteLength":1308,"target":34963}],"buffers":[{"uri":"data:application/octet-stream;base64,","byteLength":6588}]}