{"asset":{"generator":"FME 2022.1.2.0","version":"2.0"},"materials":[{"pbrMetallicRoughness":{"baseColorFactor":[1,1,1,1],"roughnessFactor":0.30000000000000004,"metallicFactor":0.5}}],"meshes":[{"primitives":[{"attributes":{"POSITION":0,"COLOR_0":1},"indices":2,"material":0,"mode":4}]}],"nodes":[{"mesh":0}],"scenes":[{"nodes":[0]}],"scene":0,"accessors":[{"bufferView":0,"byteOffset":0,"componentType":5126,"count":332,"type":"VEC3","min":[2603.523193359375,990,1990.8887939453125],"max":[4326.97412109375,2010,6737.439453125]},{"bufferView":1,"byteOffset":0,"componentType":5126,"count":332,"type":"VEC3"},{"bufferView":2,"byteOffset":0,"componentType":5123,"count":1980,"type":"SCALAR","min":[0],"max":[331]}],"bufferViews":[{"buffer":0,"byteOffset":0,"byteLength":3984,"target":34962},{"buffer":0,"byteOffset":3984,"byteLength":3984,"target":34962},{"buffer":0,"byteOffset":7968,"byteLength":3960,"target":34963}],"buffers":[{"uri":"data:application/octet-stream;base64,","byteLength":11928}]}